%TF.GenerationSoftware,KiCad,Pcbnew,6.0.2+dfsg-1*%
%TF.CreationDate,2023-08-18T14:15:48-04:00*%
%TF.ProjectId,t-driver,742d6472-6976-4657-922e-6b696361645f,rev?*%
%TF.SameCoordinates,Original*%
%TF.FileFunction,Copper,L2,Bot*%
%TF.FilePolarity,Positive*%
%FSLAX46Y46*%
G04 Gerber Fmt 4.6, Leading zero omitted, Abs format (unit mm)*
G04 Created by KiCad (PCBNEW 6.0.2+dfsg-1) date 2023-08-18 14:15:48*
%MOMM*%
%LPD*%
G01*
G04 APERTURE LIST*
G04 Aperture macros list*
%AMRoundRect*
0 Rectangle with rounded corners*
0 $1 Rounding radius*
0 $2 $3 $4 $5 $6 $7 $8 $9 X,Y pos of 4 corners*
0 Add a 4 corners polygon primitive as box body*
4,1,4,$2,$3,$4,$5,$6,$7,$8,$9,$2,$3,0*
0 Add four circle primitives for the rounded corners*
1,1,$1+$1,$2,$3*
1,1,$1+$1,$4,$5*
1,1,$1+$1,$6,$7*
1,1,$1+$1,$8,$9*
0 Add four rect primitives between the rounded corners*
20,1,$1+$1,$2,$3,$4,$5,0*
20,1,$1+$1,$4,$5,$6,$7,0*
20,1,$1+$1,$6,$7,$8,$9,0*
20,1,$1+$1,$8,$9,$2,$3,0*%
G04 Aperture macros list end*
%TA.AperFunction,SMDPad,CuDef*%
%ADD10RoundRect,0.677968X-1.322032X-1.322032X1.322032X-1.322032X1.322032X1.322032X-1.322032X1.322032X0*%
%TD*%
%TA.AperFunction,ComponentPad*%
%ADD11R,1.700000X1.700000*%
%TD*%
%TA.AperFunction,SMDPad,CuDef*%
%ADD12RoundRect,0.250000X0.625000X-0.400000X0.625000X0.400000X-0.625000X0.400000X-0.625000X-0.400000X0*%
%TD*%
%TA.AperFunction,SMDPad,CuDef*%
%ADD13RoundRect,0.250000X-0.400000X-1.075000X0.400000X-1.075000X0.400000X1.075000X-0.400000X1.075000X0*%
%TD*%
%TA.AperFunction,SMDPad,CuDef*%
%ADD14R,2.200000X1.200000*%
%TD*%
%TA.AperFunction,SMDPad,CuDef*%
%ADD15R,6.400000X5.800000*%
%TD*%
%TA.AperFunction,ViaPad*%
%ADD16C,0.800000*%
%TD*%
%TA.AperFunction,Conductor*%
%ADD17C,2.000000*%
%TD*%
%TA.AperFunction,Conductor*%
%ADD18C,6.000000*%
%TD*%
%TA.AperFunction,Conductor*%
%ADD19C,1.000000*%
%TD*%
%TA.AperFunction,Conductor*%
%ADD20C,0.250000*%
%TD*%
%TA.AperFunction,Conductor*%
%ADD21C,0.200000*%
%TD*%
G04 APERTURE END LIST*
D10*
%TO.P,x1,2*%
%TO.N,N/C*%
X114833400Y-151434800D03*
%TD*%
D11*
%TO.P,,*%
%TO.N,*%
X160000000Y-150000000D03*
%TD*%
%TO.P,J1,1,Pin_1*%
%TO.N,Net-(J1-Pad1)*%
X70000000Y-60000000D03*
%TD*%
%TO.P,,*%
%TO.N,*%
X114960400Y-105174200D03*
%TD*%
%TO.P,J3,1,Pin_1*%
%TO.N,Net-(J3-Pad1)*%
X160000000Y-60000000D03*
%TD*%
%TO.P,J2,1,Pin_1*%
%TO.N,Net-(J2-Pad1)*%
X75438000Y-59994800D03*
%TD*%
%TO.P,,*%
%TO.N,*%
X70000000Y-150000000D03*
%TD*%
D12*
%TO.P,R1,1*%
%TO.N,Net-(Q1-Pad1)*%
X106476800Y-65659600D03*
%TO.P,R1,2*%
%TO.N,Net-(J2-Pad1)*%
X106476800Y-62559600D03*
%TD*%
D13*
%TO.P,R2,1*%
%TO.N,Net-(J1-Pad1)*%
X97459200Y-65760600D03*
%TO.P,R2,2*%
%TO.N,Net-(Q1-Pad1)*%
X100559200Y-65760600D03*
%TD*%
D14*
%TO.P,Q1,1,B*%
%TO.N,Net-(Q1-Pad1)*%
X116526200Y-66542000D03*
%TO.P,Q1,2,C*%
%TO.N,Net-(J3-Pad1)*%
X116526200Y-64262000D03*
D15*
X122826200Y-64262000D03*
D14*
%TO.P,Q1,3,E*%
%TO.N,Net-(J2-Pad1)*%
X116526200Y-61982000D03*
%TD*%
D16*
%TO.N,Net-(Q1-Pad1)*%
X114808000Y-86690200D03*
X106680000Y-66954400D03*
%TD*%
D17*
%TO.N,*%
X114960400Y-105174200D02*
X114960400Y-151942800D01*
%TO.N,Net-(J2-Pad1)*%
X116526200Y-61982000D02*
X107054400Y-61982000D01*
X107054400Y-61982000D02*
X106476800Y-62559600D01*
X75438000Y-59994800D02*
X103912000Y-59994800D01*
X103912000Y-59994800D02*
X106476800Y-62559600D01*
D18*
%TO.N,Net-(J3-Pad1)*%
X122826200Y-64262000D02*
X155738000Y-64262000D01*
D17*
X155738000Y-64262000D02*
X160000000Y-60000000D01*
D19*
X116526200Y-64262000D02*
X122826200Y-64262000D01*
D20*
%TO.N,Net-(J1-Pad1)*%
X97459200Y-65760600D02*
X75760600Y-65760600D01*
X75760600Y-65760600D02*
X70000000Y-60000000D01*
D21*
%TO.N,Net-(Q1-Pad1)*%
X106476800Y-65659600D02*
X106375800Y-65760600D01*
X106375800Y-65760600D02*
X100559200Y-65760600D01*
X114808000Y-86690200D02*
X116526200Y-84972000D01*
X116526200Y-84972000D02*
X116526200Y-66542000D01*
X106680000Y-66954400D02*
X106680000Y-65862800D01*
X106680000Y-65862800D02*
X106476800Y-65659600D01*
%TD*%
M02*
