%TF.GenerationSoftware,KiCad,Pcbnew,6.0.2+dfsg-1*%
%TF.CreationDate,2023-08-17T18:16:07-04:00*%
%TF.ProjectId,Tesla-Pri,5465736c-612d-4507-9269-2e6b69636164,rev?*%
%TF.SameCoordinates,Original*%
%TF.FileFunction,Copper,L1,Top*%
%TF.FilePolarity,Positive*%
%FSLAX46Y46*%
G04 Gerber Fmt 4.6, Leading zero omitted, Abs format (unit mm)*
G04 Created by KiCad (PCBNEW 6.0.2+dfsg-1) date 2023-08-17 18:16:07*
%MOMM*%
%LPD*%
G01*
G04 APERTURE LIST*
%TA.AperFunction,ComponentPad*%
%ADD10R,1.700000X1.700000*%
%TD*%
%TA.AperFunction,ViaPad*%
%ADD11C,5.000000*%
%TD*%
%TA.AperFunction,Conductor*%
%ADD12C,7.000000*%
%TD*%
%TA.AperFunction,Conductor*%
%ADD13C,2.000000*%
%TD*%
G04 APERTURE END LIST*
D10*
%TO.P,,1*%
%TO.N,Net-(J1-Pad1)*%
X160000000Y-150000000D03*
%TD*%
%TO.P,,1*%
%TO.N,N/C*%
X160000000Y-60000000D03*
%TD*%
%TO.P,,1*%
%TO.N,N/C*%
X114960400Y-105174200D03*
%TD*%
%TO.P,,1*%
%TO.N,Net-(J1-Pad1)*%
X70000000Y-150000000D03*
%TD*%
%TO.P,,1*%
%TO.N,N/C*%
X70000000Y-60000000D03*
%TD*%
D11*
%TO.N,Net-(J1-Pad1)*%
X114615675Y-112329675D03*
%TD*%
D12*
%TO.N,Net-(J1-Pad1)*%
X110617333Y-141094513D02*
X115000000Y-141500000D01*
X116684408Y-94365066D02*
X115000000Y-94050000D01*
X131078049Y-100279059D02*
X130393454Y-97970045D01*
X149059841Y-121402355D02*
X150805203Y-117528782D01*
X144850859Y-112357576D02*
X145659432Y-108722729D01*
X81571120Y-131658643D02*
X84673958Y-135326042D01*
X102202028Y-107027000D02*
X102503117Y-109060483D01*
X121791698Y-109934457D02*
X122642608Y-108894104D01*
X91354576Y-131690166D02*
X94664374Y-134461240D01*
X117573634Y-87099979D02*
X115000000Y-86750000D01*
X139955403Y-122225471D02*
X141974056Y-119157076D01*
X128040115Y-93700676D02*
X126407972Y-91834499D01*
X103129566Y-111048288D02*
X104074225Y-112938040D01*
X115000000Y-134200000D02*
X118536593Y-134126460D01*
X134921735Y-127486990D02*
X137592070Y-125014827D01*
X123832403Y-106398915D02*
X124125000Y-105000000D01*
X89675866Y-82564775D02*
X87040706Y-85701093D01*
X88178805Y-138632715D02*
X92043766Y-141534637D01*
X137622788Y-111061758D02*
X138371247Y-108076883D01*
X117101408Y-119615613D02*
X119206779Y-119326975D01*
X132194193Y-69295891D02*
X128131542Y-67472210D01*
X94997717Y-125002283D02*
X97687079Y-127562638D01*
X109780244Y-94755652D02*
X108134668Y-95550682D01*
X110601143Y-118538290D02*
X112744606Y-119239997D01*
X97191886Y-96867307D02*
X96056556Y-99437703D01*
X100662940Y-145972964D02*
X105311597Y-147447665D01*
X122374561Y-88851965D02*
X120048135Y-87807630D01*
X118536593Y-134126460D02*
X122055210Y-133624112D01*
X131986228Y-129608800D02*
X134921735Y-127486990D01*
X107211913Y-87946467D02*
X104774516Y-89088837D01*
X118942708Y-72528875D02*
X115000000Y-72150000D01*
X102503117Y-109060483D02*
X103129566Y-111048288D01*
X139545457Y-74220970D02*
X136014317Y-71555906D01*
X123331255Y-107706989D02*
X123832403Y-106398915D01*
X107071288Y-72831951D02*
X103201886Y-73890931D01*
X152954483Y-109276443D02*
X153325000Y-105000000D01*
X111645205Y-79517802D02*
X108308449Y-80026793D01*
X80010634Y-83014724D02*
X77651623Y-87013969D01*
X84673958Y-135326042D02*
X88178805Y-138632715D01*
X96286389Y-113546220D02*
X97553549Y-116212153D01*
X106332171Y-140166766D02*
X110617333Y-141094513D01*
X153213558Y-100694366D02*
X152618290Y-96413871D01*
X82794127Y-79316674D02*
X80010634Y-83014724D01*
X112744606Y-119239997D02*
X115000000Y-119600000D01*
X146025000Y-105000000D02*
X145938154Y-101243428D01*
X141110746Y-86977053D02*
X138853022Y-83868066D01*
X82184526Y-117445268D02*
X83799595Y-121375236D01*
X98983233Y-84126543D02*
X96288187Y-86288187D01*
X141454632Y-131454632D02*
X144352188Y-128407589D01*
X105047839Y-80973358D02*
X101920833Y-82346219D01*
X106611946Y-96611946D02*
X105255390Y-97920127D01*
X80717181Y-100837312D02*
X80325000Y-105000000D01*
X100455256Y-92396908D02*
X98670122Y-94505424D01*
X124192909Y-103543986D02*
X124025526Y-102067429D01*
X92043766Y-141534637D02*
X96222132Y-143992646D01*
X124025526Y-102067429D02*
X123618261Y-100608777D01*
X153325000Y-105000000D02*
X153213558Y-100694366D01*
X103201886Y-73890931D02*
X99472884Y-75415552D01*
X118315093Y-79819366D02*
X115000000Y-79450000D01*
X141974056Y-119157076D02*
X143615093Y-115852273D01*
X104774516Y-89088837D02*
X102505555Y-90580642D01*
X152618290Y-96413871D02*
X151543454Y-92212892D01*
X120746861Y-126447578D02*
X123555366Y-125654482D01*
X123876201Y-66110822D02*
X119480778Y-65231992D01*
X73418467Y-100314886D02*
X73025000Y-105000000D01*
D13*
X113792000Y-148590000D02*
X110305494Y-148590000D01*
D12*
X119722636Y-95731305D02*
X118270945Y-94933067D01*
X115000000Y-72150000D02*
X111023449Y-72250152D01*
X130090942Y-85333101D02*
X127470833Y-83399883D01*
X145575195Y-80617095D02*
X142745102Y-77254898D01*
X94925000Y-105000000D02*
X94965114Y-107880582D01*
X115000000Y-64850000D02*
X110490031Y-64972917D01*
X138210393Y-98780794D02*
X137340562Y-95746236D01*
X97687079Y-127562638D02*
X100704167Y-129761110D01*
X121271823Y-118733376D02*
X123252145Y-117840588D01*
X94664374Y-134461240D02*
X98298564Y-136821927D01*
X145396080Y-97508039D02*
X144402665Y-93849040D01*
X115000000Y-112300000D02*
X116170521Y-112390378D01*
X131093597Y-107313910D02*
X131425000Y-105000000D01*
X134425587Y-90094223D02*
X132421343Y-87578657D01*
X96288187Y-86288187D02*
X93885231Y-88798068D01*
X102225000Y-105000000D02*
X102202028Y-107027000D01*
X91819387Y-91616667D02*
X90130318Y-94698640D01*
X85885363Y-125096383D02*
X88414913Y-128552331D01*
X138371247Y-108076883D02*
X138725000Y-105000000D01*
X117368615Y-112289848D02*
X118562690Y-111992174D01*
X105321476Y-114678524D02*
X106847419Y-116221066D01*
X129487957Y-111616428D02*
X130441295Y-109533973D01*
X117878374Y-126863425D02*
X120746861Y-126447578D01*
X87708415Y-108593005D02*
X88263978Y-112163895D01*
X138245036Y-134148353D02*
X141454632Y-131454632D01*
X108923541Y-125694519D02*
X111906916Y-126512869D01*
X124125000Y-105000000D02*
X124192909Y-103543986D01*
X76712041Y-123438509D02*
X78906869Y-127678817D01*
X131062996Y-138355155D02*
X134765942Y-136457316D01*
X81605203Y-96768922D02*
X80717181Y-100837312D01*
X149999423Y-88145166D02*
X148002588Y-84263100D01*
X81059982Y-113365463D02*
X82184526Y-117445268D01*
X124602962Y-81816398D02*
X121534102Y-80614398D01*
X133262189Y-78542651D02*
X130005196Y-76409987D01*
X111503473Y-94238796D02*
X109780244Y-94755652D01*
X102505555Y-90580642D02*
X100455256Y-92396908D01*
X113258493Y-94004560D02*
X111503473Y-94238796D01*
X131422038Y-102638867D02*
X131078049Y-100279059D01*
X89287278Y-115650558D02*
X90765722Y-118991667D01*
X115000000Y-94050000D02*
X113258493Y-94004560D01*
X128794788Y-122977717D02*
X131130873Y-121130873D01*
X123618261Y-100608777D02*
X122972862Y-99207376D01*
X152109935Y-113470100D02*
X152954483Y-109276443D01*
X136225026Y-81041898D02*
X133262189Y-78542651D01*
X88263978Y-112163895D02*
X89287278Y-115650558D01*
X99201399Y-118689566D02*
X101201787Y-120923987D01*
X111715494Y-150000000D02*
X110110551Y-148395057D01*
X111208486Y-133799408D02*
X115000000Y-134200000D01*
X105255390Y-97920127D02*
X104105218Y-99448831D01*
X92678673Y-122127756D02*
X94997717Y-125002283D01*
X136497522Y-113904565D02*
X137622788Y-111061758D01*
X135019621Y-116558333D02*
X136497522Y-113904565D01*
X121534102Y-80614398D02*
X118315093Y-79819366D01*
X120807114Y-110807114D02*
X121791698Y-109934457D01*
X151543454Y-92212892D02*
X149999423Y-88145166D01*
X137340562Y-95746236D02*
X136073285Y-92833333D01*
X97553549Y-116212153D02*
X99201399Y-118689566D01*
X119719916Y-111496406D02*
X120807114Y-110807114D01*
X122794327Y-73377172D02*
X118942708Y-72528875D01*
X83799595Y-121375236D02*
X85885363Y-125096383D01*
X136014317Y-71555906D02*
X132194193Y-69295891D01*
X130005196Y-76409987D02*
X126499427Y-74678502D01*
X119480778Y-65231992D02*
X115000000Y-64850000D01*
X88414913Y-128552331D02*
X91354576Y-131690166D01*
X87040706Y-85701093D02*
X84794030Y-89146684D01*
X107521208Y-132911232D02*
X111208486Y-133799408D01*
X124507906Y-90205409D02*
X122374561Y-88851965D01*
X115000000Y-86750000D02*
X112379143Y-86771538D01*
X102562535Y-103030099D02*
X102225000Y-105000000D01*
X80438459Y-109196531D02*
X81059982Y-113365463D01*
X115000000Y-119600000D02*
X117101408Y-119615613D01*
X101920833Y-82346219D02*
X98983233Y-84126543D01*
X74331579Y-95717698D02*
X73418467Y-100314886D01*
X148002588Y-84263100D02*
X145575195Y-80617095D01*
X78906869Y-127678817D02*
X81571120Y-131658643D01*
X119206779Y-119326975D02*
X121271823Y-118733376D01*
X144352188Y-128407589D02*
X146898822Y-125043358D01*
X128131542Y-67472210D02*
X123876201Y-66110822D01*
X126499427Y-74678502D02*
X122794327Y-73377172D01*
X92657867Y-79780946D02*
X89675866Y-82564775D01*
X128830877Y-131352534D02*
X131986228Y-129608800D01*
X145938154Y-101243428D02*
X145396080Y-97508039D01*
X95419801Y-110749265D02*
X96286389Y-113546220D01*
X116170521Y-112390378D02*
X117368615Y-112289848D01*
X95940335Y-77387309D02*
X92657867Y-79780946D01*
X101201787Y-120923987D02*
X103518755Y-122865166D01*
X103197389Y-101165099D02*
X102562535Y-103030099D01*
X119101299Y-141400033D02*
X123180028Y-140839046D01*
X142968491Y-90321004D02*
X141110746Y-86977053D01*
X126786258Y-115212851D02*
X128259303Y-113521237D01*
X94965114Y-107880582D02*
X95419801Y-110749265D01*
X121007165Y-96731846D02*
X119722636Y-95731305D01*
X127184348Y-139820867D02*
X131062996Y-138355155D01*
X128259303Y-113521237D02*
X129487957Y-111616428D01*
X98670122Y-94505424D02*
X97191886Y-96867307D01*
X73823223Y-114398331D02*
X75011371Y-118992626D01*
X145659432Y-108722729D02*
X146025000Y-105000000D01*
X96222132Y-143992646D02*
X100662940Y-145972964D01*
X90130318Y-94698640D02*
X88851583Y-97993553D01*
X142745102Y-77254898D02*
X139545457Y-74220970D01*
X88851583Y-97993553D02*
X88009979Y-101446696D01*
X96056556Y-99437703D02*
X95293555Y-102166641D01*
X95293555Y-102166641D02*
X94925000Y-105000000D01*
X131425000Y-105000000D02*
X131422038Y-102638867D01*
X144402665Y-93849040D02*
X142968491Y-90321004D01*
X93885231Y-88798068D02*
X91819387Y-91616667D01*
X93292141Y-70452141D02*
X89479226Y-72997962D01*
X115000000Y-126900000D02*
X117878374Y-126863425D01*
X122642608Y-108894104D02*
X123331255Y-107706989D01*
X90765722Y-118991667D02*
X92678673Y-122127756D01*
X126407972Y-91834499D02*
X124507906Y-90205409D01*
X104105218Y-99448831D02*
X103197389Y-101165099D01*
X80325000Y-105000000D02*
X80438459Y-109196531D01*
X112379143Y-86771538D02*
X109764897Y-87170876D01*
X108620299Y-117520869D02*
X110601143Y-118538290D01*
X134765942Y-136457316D02*
X138245036Y-134148353D01*
D13*
X110305494Y-148590000D02*
X110110551Y-148395057D01*
D12*
X106007770Y-65602467D02*
X101610133Y-66733958D01*
X123555366Y-125654482D02*
X126254167Y-124492788D01*
X146898822Y-125043358D02*
X149059841Y-121402355D01*
X99472884Y-75415552D02*
X95940335Y-77387309D01*
X82972097Y-92853419D02*
X81605203Y-96768922D01*
X123180028Y-140839046D02*
X127184348Y-139820867D01*
X138672812Y-101883415D02*
X138210393Y-98780794D01*
X111023449Y-72250152D02*
X107071288Y-72831951D01*
X150805203Y-117528782D02*
X152109935Y-113470100D01*
X88009979Y-101446696D02*
X87625000Y-105000000D01*
X118562690Y-111992174D02*
X119719916Y-111496406D01*
X103518755Y-122865166D02*
X106109175Y-124468192D01*
X118270945Y-94933067D02*
X116684408Y-94365066D01*
X75749623Y-91265699D02*
X74331579Y-95717698D01*
X125503806Y-132696260D02*
X128830877Y-131352534D01*
X89479226Y-72997962D02*
X85964428Y-75964428D01*
X130441295Y-109533973D02*
X131093597Y-107313910D01*
X108134668Y-95550682D02*
X106611946Y-96611946D01*
X85964428Y-75964428D02*
X82794127Y-79316674D01*
X73159393Y-109714304D02*
X73823223Y-114398331D01*
X98298564Y-136821927D02*
X102206265Y-138734307D01*
X115000000Y-79450000D02*
X111645205Y-79517802D01*
X122055210Y-133624112D02*
X125503806Y-132696260D01*
X125104203Y-116660872D02*
X126786258Y-115212851D01*
X130393454Y-97970045D02*
X129375876Y-95761186D01*
X160000000Y-150000000D02*
X111715494Y-150000000D01*
X129375876Y-95761186D02*
X128040115Y-93700676D01*
X75011371Y-118992626D02*
X76712041Y-123438509D01*
X84794030Y-89146684D02*
X82972097Y-92853419D01*
X77651623Y-87013969D02*
X75749623Y-91265699D01*
X143615093Y-115852273D02*
X144850859Y-112357576D01*
X97353328Y-68356309D02*
X93292141Y-70452141D01*
X108308449Y-80026793D02*
X105047839Y-80973358D01*
X111906916Y-126512869D02*
X115000000Y-126900000D01*
X122972862Y-99207376D02*
X122097584Y-97902416D01*
X120048135Y-87807630D02*
X117573634Y-87099979D01*
X104074225Y-112938040D02*
X105321476Y-114678524D01*
X110490031Y-64972917D02*
X106007770Y-65602467D01*
X133219029Y-118979953D02*
X135019621Y-116558333D01*
X122097584Y-97902416D02*
X121007165Y-96731846D01*
X73025000Y-105000000D02*
X73159393Y-109714304D01*
X136073285Y-92833333D02*
X134425587Y-90094223D01*
X131130873Y-121130873D02*
X133219029Y-118979953D01*
X138853022Y-83868066D02*
X136225026Y-81041898D01*
X123252145Y-117840588D02*
X125104203Y-116660872D01*
X101610133Y-66733958D02*
X97353328Y-68356309D01*
X106109175Y-124468192D02*
X108923541Y-125694519D01*
X127470833Y-83399883D02*
X124602962Y-81816398D01*
X115000000Y-141500000D02*
X119101299Y-141400033D01*
X132421343Y-87578657D02*
X130090942Y-85333101D01*
X87625000Y-105000000D02*
X87708415Y-108593005D01*
X126254167Y-124492788D02*
X128794788Y-122977717D01*
X102206265Y-138734307D02*
X106332171Y-140166766D01*
X109764897Y-87170876D02*
X107211913Y-87946467D01*
X138725000Y-105000000D02*
X138672812Y-101883415D01*
X100704167Y-129761110D02*
X104000243Y-131555762D01*
X106847419Y-116221066D02*
X108620299Y-117520869D01*
X104000243Y-131555762D02*
X107521208Y-132911232D01*
X137592070Y-125014827D02*
X139955403Y-122225471D01*
X105311597Y-147447665D02*
X110110551Y-148395057D01*
%TD*%
M02*
